# xmcd CD database file
#
# Track frame offsets:
#	150
#	12122
#	24812
#	36320
#	48560
#	60360
#	72675
#	85482
#	94937
#	103887
#	114425
#	125897
#	138177
#	148212
#	158887
#	169920
#
# Disc length: 2437 seconds
#
# Revision: 1
# Processed by: cddbd v1.4PL0 Copyright (c) Steve Scherf et al.
# Submitted via: NeoAudio 9.9.9
#
DISCID=e6098310
DTITLE=Jim Reeves - Country Legends
DYEAR=1900
DGENRE=Country
TTITLE0=Mexican Joe
TTITLE1=Bimbo
TTITLE2=Younder Comes A Sucker
TTITLE3=I've Lived A Lot In My Time
TTITLE4=According To My Heart
TTITLE5=Am I Losing You?
TTITLE6=Four Walls
TTITLE7=Billy Bayou
TTITLE8=Home
TTITLE9=He'll Have To Go
TTITLE10=Look Behind You
TTITLE11=Stand At Your Window
TTITLE12=I Heard A Heart Break Last Night
TTITLE13=The Image Of Me
TTITLE14=I Guess I'm Crazy
TTITLE15=Distant Drums
EXTD=
EXTT0=
EXTT1=
EXTT2=
EXTT3=
EXTT4=
EXTT5=
EXTT6=
EXTT7=
EXTT8=
EXTT9=
EXTT10=
EXTT11=
EXTT12=
EXTT13=
EXTT14=
EXTT15=
PLAYORDER=
